<svg version="1.0" xmlns="http://www.w3.org/2000/svg" width="1024.000000pt" height="1024.000000pt"
  viewBox="0 0 1024.000000 1024.000000" preserveAspectRatio="xMidYMid meet">

  <g transform="translate(0.000000,1024.000000) scale(0.100000,-0.100000)" fill="#737380" stroke="none">
    <path d="M4920 8579 c-268 -30 -550 -126 -778 -265 -302 -183 -571 -480 -722
-796 -213 -447 -245 -953 -90 -1418 95 -287 235 -514 458 -742 81 -83 92 -98
76 -104 -178 -64 -441 -186 -601 -280 -693 -407 -1243 -1026 -1554 -1749 -186
-435 -299 -957 -299 -1385 0 -108 3 -130 20 -158 44 -72 146 -81 209 -18 l35
36 8 167 c14 309 53 563 128 828 297 1052 1088 1909 2120 2293 227 85 207 84
352 13 537 -264 1148 -264 1687 1 l125 61 75 -22 c286 -84 674 -280 968 -488
279 -197 589 -507 785 -784 403 -570 619 -1201 645 -1879 6 -172 12 -197 56
-238 53 -50 158 -34 197 30 17 29 20 50 20 165 0 321 -72 741 -185 1078 -114
342 -291 691 -499 985 -226 318 -555 647 -877 876 -263 187 -618 373 -893 468
-16 5 -2 23 85 114 162 166 261 306 354 497 259 531 259 1132 0 1660 -105 215
-209 358 -387 531 -159 155 -306 257 -509 353 -307 146 -675 208 -1009 170z
m445 -280 c633 -95 1158 -562 1324 -1179 82 -304 73 -631 -25 -935 -35 -109
-131 -303 -196 -397 -262 -379 -658 -629 -1101 -694 -151 -22 -440 -15 -575
15 -572 127 -1023 531 -1207 1082 -101 305 -103 683 -5 995 42 133 145 338
227 454 87 122 253 287 371 370 258 181 504 271 837 304 59 6 270 -3 350 -15z" />
  </g>
</svg>